<?xml version="1.0" encoding="utf-8"?>
<!DOCTYPE svg PUBLIC "-//W3C//DTD SVG 1.1//EN" "http://www.w3.org/Graphics/SVG/1.1/DTD/svg11.dtd">
<svg version="1.1" id="Layer_1" xmlns="http://www.w3.org/2000/svg" xmlns:xlink="http://www.w3.org/1999/xlink" x="0px" y="0px"
	 width="290px" height="290px" viewBox="0 0 290 290" enable-background="new 0 0 290 290" xml:space="preserve">
<g>
	<rect fill="none" width="290" height="290"/>
	<g>
		<path opacity="0.3" fill="#333333" d="M229.553,275.059c0.306-0.492,0.459-0.994,0.459-1.505c0-3.653-7.837-6.626-17.472-6.626
			c-5.261,0-10.032,0.874-13.256,2.301c-2.678-1.618-7.424-2.696-12.821-2.696c-4.738,0-8.981,0.816-11.758,2.115
			c-3.24-2.735-4.932-5.712-4.932-8.74c0-1.437,0.38-2.874,1.129-4.274c0.218-0.407-0.059-0.829-0.751-1.151
			c-0.693-0.321-1.731-0.509-2.827-0.509h-38.39c-1.096,0-2.134,0.188-2.827,0.509c-0.693,0.322-0.969,0.744-0.751,1.151
			c0.749,1.399,1.129,2.838,1.129,4.274c0,4.458-2.194,7.945-6.531,10.391c-3.586-2-9.63-3.271-16.244-3.271
			c-8.514,0-15.78,2.064-18.5,4.943c-2.853-0.906-6.529-1.383-10.88-1.383c-9.202,0-16.689,2.839-16.689,6.33
			c0,0.289,0.052,0.576,0.155,0.859c-12.656,1.531-13.715,5.021-13.715,6.129c0,3.156,10.388,5.537,24.163,5.537
			c9.808,0,17.898-1.206,21.745-3.041c4.304,1.479,10.553,2.383,17.373,2.383c6.424,0,12.391-0.795,16.696-2.157
			c4.144,2.022,12.494,3.372,22.082,3.372c10.03,0,18.447-1.402,22.411-3.512c4.601,1.438,11.173,2.297,18.219,2.297
			c7.267,0,13.97-0.902,18.567-2.411c3.823,1.851,11.946,3.069,21.805,3.069c12.97,0,18.776-3.244,18.776-6.461
			C245.919,279.135,239.489,276.953,229.553,275.059z"/>
		<path fill="#8E8E8E" d="M221.74,253.438c0.8-1.643,1.26-3.469,1.26-5.403c0-7.048-5.933-12.762-13.25-12.762
			c-6.294,0-11.551,4.229-12.902,9.896c-0.368-0.088-0.734-0.174-1.098-0.259c0-0.002,0-0.004,0-0.006
			c0-5.851-4.925-10.594-11-10.594c-5.71,0-10.401,4.19-10.945,9.552c-5.418-8.447-8.555-18.396-8.555-29.054
			c0-3.794,0.398-7.497,1.152-11.076h-36.805c0.754,3.579,1.152,7.282,1.152,11.076c0,11.173-2.109,22.561-9.358,30.267
			c-0.412,0.437-0.812,0.84-1.215,1.252c-1.797-6.232-7.717-10.813-14.76-10.813c-8.469,0-15.333,6.612-15.333,14.768
			c0,1.396-0.053,2.806-0.116,3.923c-0.096,1.692-0.717-10.021-12.717-10.021c-6.904,0-12.5,5.39-12.5,12.038
			c0,1.598,0.33,3.119,0.917,4.514c-10.763,2.102-13.916,7.973-13.916,12.502c0,5.584,8.806,10.112,19.665,10.112
			s19.665-4.528,19.665-10.112c0-0.762-0.178-1.502-0.488-2.216c0.013-0.005,0.025-0.012,0.038-0.018
			c1.995,6.159,9.415,10.741,18.288,10.741c7.45,0,13.871-3.234,16.925-7.917c0.925,6.096,9.632,10.876,20.251,10.876
			c11.009,0,19.954-5.141,20.31-11.556c3.063,5.051,10.256,8.597,18.642,8.597c8.557,0,15.856-3.699,18.809-8.916
			c0.135,0.188,0.23,0.341,0.23,0.408c0,5.584,8.806,10.112,19.665,10.112s14.501-6.776,14.501-12.36
			C238.25,263.457,233.811,258.796,221.74,253.438z"/>
		<polygon fill="#F15722" points="146.75,248.155 140.25,216.373 155.125,216.373 		"/>
		<g>
			<path opacity="0.1" fill="#333333" d="M165.329,217.577h-34.63c-0.097,2.92-0.357,5.831-0.829,8.668h9.924
				c1.59,4.019,3.323,6.661,6.602,6.661c3.036,0,4.79-2.166,6.707-6.661h13.381C165.869,223.428,165.481,220.533,165.329,217.577z"
				/>
		</g>
		<path fill="#D8D8D8" d="M196.891,247.592c0,14.347-5.436,13.323-12.141,13.323s-12.141-5.965-12.141-13.323
			c0-7.356,5.436-13.321,12.141-13.321S196.891,240.236,196.891,247.592z"/>
		<ellipse fill="#EAEAEA" cx="209.083" cy="251.465" rx="13.792" ry="15.831"/>
		<path fill="#D8D8D8" d="M237.479,275.293c-1.854,6.401-10.369,9.711-19.021,7.388c-8.653-2.321-14.165-9.395-12.313-15.797
			c1.853-6.403,10.368-9.712,19.021-7.389C233.819,261.817,239.331,268.889,237.479,275.293z"/>
		<path fill="#FFFFFF" d="M238.25,270.988c0-7.531-4.439-12.191-16.51-17.55c0.8-1.643,1.26-3.469,1.26-5.403
			c0-7.048-5.933-12.762-13.25-12.762c-6.294,0-11.551,4.229-12.902,9.896c-0.368-0.088-0.734-0.174-1.098-0.259
			c0-0.002,0-0.004,0-0.006c0-5.851-4.925-10.594-11-10.594c-5.71,0-10.401,4.19-10.945,9.552
			c-5.418-8.447-8.555-18.396-8.555-29.054h-6c0,11.354,3.268,22.451,9.449,32.089c1.085,1.693,3.039,2.745,5.101,2.745
			c0.459-0.001,0.919-0.052,1.36-0.151c2.51-0.56,4.364-2.596,4.616-5.066c0.25-2.472,2.389-4.336,4.974-4.336
			c2.757,0,5,2.163,5,4.821c0,2.677,1.887,4.986,4.581,5.614l1.078,0.255c1.545,0.367,3.219,0.117,4.584-0.688
			c1.36-0.808,2.345-2.13,2.702-3.628c0.76-3.186,3.661-5.41,7.055-5.41c3.998,0,7.25,3.132,7.25,6.982
			c0,1.014-0.233,2.007-0.692,2.951c-0.674,1.384-0.747,3.001-0.203,4.436c0.544,1.434,1.683,2.625,3.124,3.265
			c4.511,2.003,7.468,3.711,9.403,5.258c5.022,3.809,7.851,9.16,7.163,14.465C237.532,276.162,238.25,273.459,238.25,270.988z"/>
		<path fill="#B7B7B7" d="M107.979,273.984c-8.645,0.919-16.621-6.782-17.819-17.205c-1.196-10.424,4.842-19.618,13.489-20.537
			c8.643-0.921,16.624,6.781,17.817,17.204C122.664,263.869,116.624,273.063,107.979,273.984z"/>
		<path fill="#CCCCCC" d="M206.207,266.292c0.205,8.234-8.955,15.123-20.461,15.391c-11.508,0.266-21-6.193-21.205-14.429
			c-0.205-8.232,8.955-15.124,20.461-15.389C196.508,251.599,206.002,258.059,206.207,266.292z"/>
		<path fill="#CCCCCC" d="M131.541,266.292c0.205,8.234-8.955,15.123-20.461,15.391c-11.508,0.266-21-6.193-21.205-14.429
			c-0.205-8.232,8.955-15.124,20.461-15.389C121.841,251.599,131.335,258.059,131.541,266.292z"/>
		<path fill="#D8D8D8" d="M169.083,266.736c0.221,8.877-9.654,16.305-22.058,16.592c-12.406,0.287-22.64-6.677-22.86-15.554
			c-0.221-8.875,9.654-16.305,22.058-16.59C158.627,250.895,168.862,257.861,169.083,266.736z"/>
		<path opacity="0.7" fill="#FFFFFF" d="M162.276,262.353c-0.495,2.314-5.99,3.182-12.272,1.936
			c-6.286-1.247-10.978-4.135-10.483-6.45c0.496-2.314,5.991-3.183,12.274-1.935C158.08,257.15,162.771,260.037,162.276,262.353z"/>
		<path fill="#FFFFFF" d="M200.141,261.945c-0.429,2.007-3.935,3.009-7.829,2.237c-3.896-0.774-6.706-3.027-6.276-5.037
			c0.43-2.007,3.936-3.01,7.83-2.236C197.762,257.681,200.57,259.936,200.141,261.945z"/>
		<path fill="#FFFFFF" d="M214.996,244.564c-0.313,1.466-2.435,2.287-4.736,1.83c-2.303-0.457-3.914-2.017-3.601-3.484
			c0.314-1.468,2.435-2.289,4.736-1.83C213.699,241.536,215.31,243.095,214.996,244.564z"/>
		<path fill="#FFFFFF" d="M234.723,270.924c-0.846,1.95-4.974,2.148-9.215,0.441c-4.244-1.709-6.997-4.676-6.149-6.627
			c0.846-1.951,4.973-2.149,9.214-0.44C232.817,266.005,235.57,268.974,234.723,270.924z"/>
		<path opacity="0.5" fill="#FFFFFF" d="M122.188,260.122c-0.454,2.128-3.853,3.253-7.589,2.513
			c-3.738-0.742-6.398-3.068-5.943-5.197c0.455-2.127,3.854-3.254,7.59-2.512C119.984,255.667,122.644,257.995,122.188,260.122z"/>
		<ellipse fill="#8E8E8E" cx="77.5" cy="255.98" rx="11.939" ry="11.498"/>
		<path fill="#CCCCCC" d="M88.17,270.842c-1.364-6.003-10.366-9.88-20.108-8.658c-9.743,1.224-16.535,7.081-15.172,13.086
			c1.364,6.003,10.366,9.88,20.108,8.658C82.741,282.705,89.533,276.846,88.17,270.842z"/>
		<path fill="#333333" d="M146.094,288.074c-9.192,0-17.198-3.287-21.17-8.212c-4.128,3.318-9.848,5.252-16.007,5.252
			c-6.538,0-12.529-2.198-16.655-5.8c-3.688,4.467-11.444,7.404-20.847,7.404c-13.206,0-23.165-5.796-23.165-13.482
			c0-2.698,1.015-11.192,13.148-14.919c-0.099-0.692-0.149-1.392-0.149-2.097c0-8.496,7.178-15.409,16-15.409
			c4.171,0,7.696,1.159,10.431,3.366c2.608-7.008,9.574-12.035,17.736-12.035c6.341,0,12.134,3.097,15.573,7.966
			c4.157-5.957,6.261-14.444,6.261-25.3c0-3.497-0.364-6.998-1.083-10.405c-0.209-0.991,0.056-2.021,0.72-2.804
			s1.66-1.238,2.71-1.238h36.805c1.05,0,2.045,0.455,2.71,1.238c0.664,0.782,0.929,1.813,0.72,2.804
			c-0.718,3.409-1.082,6.91-1.082,10.405c0,7.374,1.621,14.621,4.728,21.282c2.662-3.164,6.729-5.151,11.272-5.151
			c5.175,0,9.725,2.624,12.292,6.564c3.09-3.476,7.664-5.601,12.708-5.601c9.236,0,16.75,7.236,16.75,16.132
			c0,1.242-0.147,2.467-0.44,3.663c9.526,4.61,15.69,9.922,15.69,19.29c0,7.829-5.566,15.73-18.001,15.73
			c-9.451,0-17.238-2.968-20.903-7.473c-4.408,3.672-10.834,5.868-17.801,5.868c-6.755,0-13.056-2.091-17.466-5.591
			C163.778,284.661,155.709,288.074,146.094,288.074z M125.842,270.457c0.24,0,0.482,0.023,0.723,0.072
			c1.435,0.291,2.528,1.413,2.741,2.811c0.585,3.86,7.471,7.993,16.788,7.993c9.781,0,16.591-4.326,16.814-8.365
			c0.082-1.487,1.168-2.745,2.671-3.097c1.502-0.351,3.066,0.291,3.847,1.576c2.513,4.143,8.789,6.926,15.619,6.926
			c6.989,0,13.313-2.876,15.735-7.157c0.582-1.028,1.676-1.692,2.89-1.753c1.227-0.052,2.375,0.488,3.064,1.452
			c0.275,0.384,0.85,1.186,0.85,2.321c0,2.749,6.297,6.741,16.165,6.741c10.208,0,11.001-6.881,11.001-8.989
			c0-5.229-2.307-9.087-14.475-14.488c-0.847-0.376-1.503-1.062-1.822-1.904c-0.32-0.844-0.277-1.774,0.118-2.587
			c0.616-1.268,0.929-2.604,0.929-3.974c0-5.178-4.374-9.391-9.75-9.391c-4.565,0-8.469,2.994-9.491,7.279
			c-0.21,0.881-0.778,1.643-1.577,2.116c-0.799,0.473-1.764,0.618-2.672,0.401l-1.083-0.255c-1.57-0.366-2.677-1.72-2.677-3.276
			c0-3.988-3.364-7.229-7.5-7.229c-3.878,0-7.086,2.798-7.462,6.509c-0.146,1.439-1.229,2.629-2.692,2.955
			c-1.466,0.331-2.98-0.282-3.769-1.512c-5.938-9.259-9.077-19.919-9.077-30.825c0-2.575,0.176-5.154,0.522-7.705h-28.545
			c0.347,2.55,0.522,5.129,0.522,7.705c0,14.345-3.453,25.289-10.264,32.529c-0.341,0.362-0.674,0.701-1.006,1.04l-0.256,0.262
			c-0.866,0.885-2.16,1.254-3.387,0.959c-1.226-0.292-2.193-1.198-2.532-2.37c-1.417-4.913-6.1-8.344-11.388-8.344
			c-6.525,0-11.833,5.112-11.833,11.396c0,1.27-0.043,2.729-0.122,4.107c-0.125,2.194-1.861,3.348-3.511,3.354
			c-0.004,0-0.009,0-0.013,0c-0.829,0-2.799-0.287-3.517-2.904c-1.345-4.901-4.345-7.285-9.171-7.285c-4.962,0-9,3.889-9,8.668
			c0,1.113,0.222,2.206,0.661,3.249c0.391,0.929,0.332,1.977-0.161,2.86c-0.492,0.883-1.368,1.509-2.388,1.708
			c-10.029,1.958-11.111,7.085-11.111,9.198c0,2.749,6.297,6.741,16.165,6.741s16.165-3.992,16.165-6.741
			c0-0.279-0.071-0.578-0.216-0.913c-0.718-1.65,0.029-3.548,1.69-4.331c0.038-0.018,0.082-0.037,0.114-0.053
			c0.916-0.403,1.966-0.41,2.885-0.016c0.919,0.394,1.618,1.15,1.918,2.075c1.571,4.853,7.857,8.374,14.946,8.374
			c5.969,0,11.449-2.488,13.962-6.339C123.528,271.04,124.655,270.457,125.842,270.457z"/>
		<polygon fill="#F89824" points="174.833,215.048 117.833,215.048 133.966,185.193 159.776,185.193 		"/>
		<path fill="#333333" d="M174.853,219.382c-0.005,0.001-0.012,0.001-0.02,0h-57c-1.573,0-3.031-0.791-3.847-2.085
			c-0.815-1.295-0.871-2.906-0.145-4.249l16.132-29.856c0.774-1.434,2.313-2.333,3.992-2.333h25.811c1.724,0,3.295,0.948,4.048,2.44
			l14.882,29.509c0.41,0.653,0.646,1.42,0.646,2.24C179.353,217.442,177.338,219.382,174.853,219.382z M125.248,210.714h42.396
			l-10.686-21.188h-20.262L125.248,210.714z"/>
		<path fill="#D3B88C" d="M141.75,100.435v76.16c3.311-0.516,6.704-0.795,10.166-0.795c28.573,0,52.701,18.275,60.504,43.349
			c5.129-10.695,7.996-22.604,7.996-35.159C220.416,140.386,185.902,104.55,141.75,100.435z"/>
		<path opacity="0.1" fill="#333333" d="M206.506,138.508c-14.072-20.981-37.581-35.541-64.756-38.073v76.16
			c3.311-0.516,6.704-0.795,10.166-0.795c15.416,0,29.531,5.326,40.493,14.163C199.872,174.424,204.746,157.609,206.506,138.508z"/>
		<path opacity="0.6" fill="#FFFFFF" d="M141.75,100.435v4.722c40.436,7.285,71.041,41.446,71.041,82.504
			c0,8.184-1.225,16.088-3.493,23.565c1.22,2.553,2.273,5.193,3.122,7.922c5.129-10.695,7.996-22.604,7.996-35.159
			C220.416,140.386,185.902,104.55,141.75,100.435z"/>
		<path fill="#333333" d="M212.422,223.483c-0.106,0-0.213-0.004-0.32-0.011c-1.865-0.127-3.455-1.353-3.992-3.079
			c-7.377-23.703-30.484-40.259-56.193-40.259c-3.119,0-6.297,0.249-9.448,0.739c-1.304,0.205-2.631-0.156-3.635-0.978
			c-1.004-0.824-1.583-2.03-1.583-3.301v-76.16c0-1.223,0.536-2.388,1.475-3.209s2.194-1.224,3.458-1.105
			c22.561,2.103,43.436,12.175,58.78,28.361c15.445,16.293,23.952,37.427,23.952,59.508c0,12.897-2.83,25.339-8.411,36.977
			C215.766,222.507,214.166,223.483,212.422,223.483z M151.916,171.466c25.645,0,49.044,14.282,60.406,35.827
			c2.388-7.503,3.594-15.306,3.594-23.304c0-39.602-29.615-72.605-69.666-78.64v66.349
			C148.146,171.544,150.04,171.466,151.916,171.466z"/>
		<path fill="#B29668" d="M148.292,98.804l3.531,76.083c-3.331-0.372-6.735-0.505-10.193-0.356
			c-28.545,1.229-51.802,20.523-58.434,45.907c-5.62-10.464-9.036-22.238-9.618-34.78
			C71.556,142.096,104.375,104.813,148.292,98.804z"/>
		<path fill="#333333" d="M83.195,224.771c-1.667,0-3.216-0.893-3.996-2.343c-6.115-11.386-9.519-23.692-10.117-36.577
			c-1.024-22.059,6.495-43.538,21.17-60.479c14.578-16.83,34.966-27.789,57.407-30.859c1.26-0.172,2.53,0.175,3.506,0.955
			c0.977,0.78,1.565,1.921,1.622,3.142l3.531,76.084c0.06,1.269-0.463,2.499-1.428,3.365s-2.274,1.282-3.586,1.133
			c-3.165-0.353-6.315-0.465-9.474-0.332c-25.684,1.106-48,18.638-54.271,42.635c-0.456,1.747-1.987,3.041-3.846,3.248
			C83.541,224.762,83.367,224.771,83.195,224.771z M144.024,103.907c-39.731,7.751-67.787,41.995-65.951,81.557
			c0.371,7.991,1.937,15.734,4.671,23.128c10.351-22.014,33.066-37.287,58.685-38.39c1.899-0.082,3.772-0.085,5.671-0.012
			L144.024,103.907z"/>
		<path opacity="0.1" fill="#333333" d="M84.915,140.351c2.06,19.176,7.304,36.047,15.178,51.664
			c10.734-10.213,25.274-16.783,41.538-17.483c3.458-0.148,6.862-0.016,10.193,0.356l-3.531-76.083
			C120.956,102.544,97.925,118.405,84.915,140.351z"/>
		<path fill="#CEB280" d="M178.369,196.991c13.803-23.193,21.715-48.773,21.715-80.578c0-43.099-21.957-80.699-53.334-112.079
			c-31.376,31.379-53.333,68.98-53.333,112.079c0,31.805,7.912,57.385,21.715,80.578H178.369z"/>
		<path opacity="0.08" fill="#333333" d="M143.104,50.481c11.758,0,25.521-2.288,31.989-4.244
			c-8.773-14.656-15.879-27.143-28.552-39.817c-12.749,12.75-23.942,26.527-32.74,41.283
			C123.749,49.884,131.793,50.481,143.104,50.481z"/>
		<path opacity="0.1" fill="#333333" d="M134.909,216.461c0,0-3.274-10.577-4.811-17.15c-3.838-16.422-6.04-33.069-6.04-45.676
			c0-9.256,1.148-16.636,3.414-21.938c3.867-9.051,10.352-10.951,15.112-10.951c5.027,0,11.897,1.855,16.082,10.693
			c2.502,5.283,3.771,12.636,3.771,21.856c0,12.562-2.449,29.307-6.721,45.944c-1.688,6.575-5.279,17.27-5.279,17.27
			L134.909,216.461z"/>
		<path fill="#F89824" d="M146.083,48.996c11.758,0,22.978-1.295,33.246-3.643c-8.773-14.656-19.906-28.345-32.579-41.019
			c-12.749,12.75-23.942,26.527-32.74,41.282C123.957,47.797,134.772,48.996,146.083,48.996z"/>
		<path fill="#FCB96E" d="M146.75,4.334c-0.004,0.004-0.009,0.009-0.014,0.014c12.495,12.553,23.481,26.094,32.155,40.584
			c-10.268,2.348-21.487,3.643-33.246,3.643c-11.079,0-21.676-1.156-31.453-3.252c-0.06,0.099-0.124,0.195-0.183,0.294
			c9.947,2.181,20.762,3.38,32.073,3.38c11.758,0,22.978-1.295,33.246-3.643C170.556,30.697,159.423,17.008,146.75,4.334z"/>
		<path opacity="0.1" fill="#333333" d="M145.563,57.664c-12.215,0-22.697,7.437-27.042,17.954
			c5.238-25.025,15.408-48.326,30.416-67.994c-2.016-2.159-0.084-1.186-2.188-3.29c-31.376,31.379-53.333,68.98-53.333,112.079
			c0,31.805,7.912,57.385,21.715,80.578h16.989c-11.286-23.193-17.755-48.773-17.755-80.578c0-9.718,0.687-19.336,2.042-28.762
			c0.654,15.293,13.48,27.537,29.157,27.537c16.094,0,29.188-12.903,29.188-28.762S161.657,57.664,145.563,57.664z M145.563,107.019
			c-11.523,0-20.898-9.238-20.898-20.593s9.375-20.593,20.898-20.593c11.524,0,20.898,9.237,20.898,20.593
			S157.087,107.019,145.563,107.019z"/>
		<path opacity="0.2" fill="#FFFFFF" d="M144.416,7.624c2.016-2.159,0.084-1.186,2.188-3.29
			c31.376,31.379,53.334,68.98,53.334,112.079c0,31.805-7.912,57.385-21.715,80.578h-16.989
			c11.286-23.193,17.755-48.773,17.755-80.578C178.988,76.203,167.346,37.675,144.416,7.624z"/>
		<path opacity="0.4" fill="#FFFFFF" d="M146.604,4.334c-2.104,2.104-0.172,1.13-2.188,3.29c4.121,5.401,7.871,11.08,11.262,16.989
			c21.692,27.075,35.76,58.037,35.76,92.522c0,31.476-7.76,56.853-21.299,79.855h8.084c13.803-23.193,21.715-48.773,21.715-80.578
			C199.938,73.314,177.979,35.713,146.604,4.334z"/>
		<ellipse fill="#95D9F2" cx="146.584" cy="84.791" rx="24.167" ry="23.275"/>
		<path opacity="0.1" fill="#333333" d="M146.584,61.516c-13.347,0-24.167,10.42-24.167,23.275s10.82,23.275,24.167,23.275
			c13.348,0,24.167-10.421,24.167-23.275S159.932,61.516,146.584,61.516z M148.5,102.247c-10.517,0-19.042-8.21-19.042-18.339
			s8.525-18.339,19.042-18.339s19.042,8.211,19.042,18.339S159.017,102.247,148.5,102.247z"/>
		<path fill="#FFFFFF" d="M156.753,83.767c-0.975,0-1.9-0.552-2.304-1.471c-1.85-4.213-6.115-6.936-10.865-6.936
			c-1.381,0-2.5-1.078-2.5-2.408c0-1.33,1.119-2.408,2.5-2.408c6.764,0,12.836,3.876,15.471,9.876
			c0.538,1.224-0.058,2.637-1.329,3.155C157.408,83.706,157.078,83.767,156.753,83.767z"/>
		<ellipse fill="#FFFFFF" cx="158.625" cy="88.322" rx="2.458" ry="2.367"/>
		<path fill="#333333" d="M178.369,201.325h-63.238c-1.613,0-3.102-0.832-3.904-2.18c-15.221-25.576-22.311-51.865-22.311-82.732
			c0-40.136,18.367-78.856,54.592-115.085C144.357,0.479,145.527,0,146.75,0c1.223,0,2.394,0.479,3.241,1.328
			c36.226,36.228,54.593,74.948,54.593,115.085c0,30.867-7.089,57.156-22.311,82.732
			C181.472,200.493,179.981,201.325,178.369,201.325z M117.761,192.657h57.979c13.53-23.53,19.845-47.829,19.845-76.244
			c0-36.617-16.424-72.182-48.834-105.773c-32.41,33.592-48.833,69.156-48.833,105.773
			C97.917,144.828,104.231,169.126,117.761,192.657z"/>
		<rect x="126" y="198.596" opacity="0.15" fill="#333333" width="41.5" height="6.099"/>
		<path fill="#CEB280" d="M146.584,221.71c-4.511,0-29.167-96.631,0-96.631C178.75,125.08,151.096,221.71,146.584,221.71z"/>
		<path opacity="0.2" fill="#FFFFFF" d="M146.584,125.08c-1.256,0-2.406,0.191-3.468,0.534c12.74,6.314,4.575,68.106-0.056,89.128
			c1.499,4.353,2.784,6.969,3.524,6.969C151.096,221.71,178.75,125.08,146.584,125.08z"/>
		<path opacity="0.4" fill="#FFFFFF" d="M146.584,125.08c-1.114,0-2.14,0.158-3.1,0.431c21.875,6.233,7.557,69.332-0.236,89.77
			c1.418,4.026,2.627,6.431,3.336,6.431C151.096,221.71,178.75,125.08,146.584,125.08z"/>
		<path fill="#333333" d="M146.584,226.044c-4.021,0-5.717-3.973-7.675-9.583c-1.566-4.485-3.274-10.577-4.811-17.15
			c-3.838-16.422-6.04-33.069-6.04-45.676c0-9.256,1.148-16.636,3.414-21.938c3.867-9.051,10.352-10.951,15.112-10.951
			c5.027,0,11.897,1.855,16.082,10.693c2.502,5.283,3.771,12.636,3.771,21.856c0,12.562-2.449,29.307-6.721,45.944
			c-1.688,6.575-3.563,12.709-5.279,17.27C152.005,222.968,150.21,226.044,146.584,226.044z M146.584,129.414
			c-1.799,0-4.122,0.479-6.134,4.214c-8.34,15.482,0.564,60.431,6.263,78.16c6.102-17.397,15.867-61.267,7.472-77.341
			C151.855,129.986,148.899,129.414,146.584,129.414z"/>
		<path fill="#333333" d="M146.584,111.918c-15.531,0-28.167-12.169-28.167-27.127c0-14.958,12.636-27.127,28.167-27.127
			s28.167,12.169,28.167,27.127C174.751,99.749,162.115,111.918,146.584,111.918z M146.584,65.368
			c-11.12,0-20.167,8.713-20.167,19.422c0,10.71,9.047,19.423,20.167,19.423s20.167-8.713,20.167-19.423
			C166.751,74.081,157.704,65.368,146.584,65.368z"/>
	</g>
</g>
</svg>
